<svg width="24" height="24" viewBox="0 0 24 24" fill="none" xmlns="http://www.w3.org/2000/svg">
  <defs>
    <linearGradient id="cyberCartGradient" x1="0%" y1="0%" x2="100%" y2="100%">
      <stop offset="0%" style="stop-color:#00d4ff;stop-opacity:1" />
      <stop offset="100%" style="stop-color:#0099cc;stop-opacity:1" />
    </linearGradient>
    <filter id="cyberCartGlow">
      <feGaussianBlur stdDeviation="1" result="coloredBlur"/>
      <feMerge> 
        <feMergeNode in="coloredBlur"/>
        <feMergeNode in="SourceGraphic"/>
      </feMerge>
    </filter>
  </defs>
  
  <!-- Cyber cart body -->
  <path d="M3 3h2l.4 2M7 13h10l4-8H5.4m0 0L7 13m0 0l-2.3 5c-.3.6.2 1.2.9 1.2h12.8c.7 0 1.2-.6.9-1.2L17 13H7z" 
        stroke="url(#cyberCartGradient)" stroke-width="2" fill="none" filter="url(#cyberCartGlow)"/>
  
  <!-- Digital wheels -->
  <rect x="7.5" y="18.5" width="3" height="3" rx="1.5" fill="url(#cyberCartGradient)" opacity="0.8"/>
  <rect x="13.5" y="18.5" width="3" height="3" rx="1.5" fill="url(#cyberCartGradient)" opacity="0.8"/>
  
  <!-- Digital items -->
  <rect x="7" y="7" width="2" height="2" rx="0.5" fill="url(#cyberCartGradient)" opacity="0.6"/>
  <rect x="11" y="7" width="2" height="2" rx="0.5" fill="url(#cyberCartGradient)" opacity="0.6"/>
  <rect x="9" y="9" width="2" height="2" rx="0.5" fill="url(#cyberCartGradient)" opacity="0.4"/>
  
  <!-- Circuit elements -->
  <path d="M6 2h12" stroke="url(#cyberCartGradient)" stroke-width="0.5" opacity="0.5"/>
  <path d="M6 15h12" stroke="url(#cyberCartGradient)" stroke-width="0.5" opacity="0.5"/>
</svg> 