<?xml version="1.0" encoding="UTF-8"?>
<svg width="24" height="36" viewBox="0 0 24 36" fill="none" xmlns="http://www.w3.org/2000/svg">
    <!-- Marker shadow -->
    <ellipse cx="12" cy="32" rx="8" ry="2" fill="#00000033"/>
    
    <!-- Marker body -->
    <path d="M12 0C5.373 0 0 5.373 0 12C0 18.627 12 36 12 36C12 36 24 18.627 24 12C24 5.373 18.627 0 12 0Z" fill="#4B5563"/>
    
    <!-- Skull symbol -->
    <path d="M12 8C9.5 8 8 9.5 8 12C8 14.5 9.5 16 12 16C14.5 16 16 14.5 16 12C16 9.5 14.5 8 12 8Z" fill="#9CA3AF"/>
    <path d="M10 10H14M10 14H14" stroke="#9CA3AF" stroke-width="1.5" stroke-linecap="round"/>
    
    <!-- Crossed bones -->
    <path d="M8 8L16 16M16 8L8 16" stroke="#9CA3AF" stroke-width="1.5" stroke-linecap="round"/>
</svg> 