<?xml version="1.0" encoding="UTF-8"?>
<svg width="24" height="36" viewBox="0 0 24 36" fill="none" xmlns="http://www.w3.org/2000/svg">
    <!-- Marker shadow -->
    <ellipse cx="12" cy="32" rx="8" ry="2" fill="#00000033"/>
    
    <!-- Marker body -->
    <path d="M12 0C5.373 0 0 5.373 0 12C0 18.627 12 36 12 36C12 36 24 18.627 24 12C24 5.373 18.627 0 12 0Z" fill="#1F2937"/>
    
    <!-- Wolf head silhouette -->
    <path d="M12 8C9.5 8 8 9.5 8 12C8 14.5 9.5 16 12 16C14.5 16 16 14.5 16 12C16 9.5 14.5 8 12 8Z" fill="#DC2626"/>
    <!-- Wolf ears -->
    <path d="M10 8L9 6L11 7M14 8L15 6L13 7" stroke="#DC2626" stroke-width="1" stroke-linecap="round"/>
    <!-- Wolf snout -->
    <path d="M11 12H13M10 14H14" stroke="#DC2626" stroke-width="1" stroke-linecap="round"/>
    
    <!-- Military crosshair -->
    <circle cx="12" cy="12" r="3" stroke="#6B7280" stroke-width="0.5" fill="none"/>
    <path d="M12 9V15M9 12H15" stroke="#6B7280" stroke-width="0.5"/>
    
    <!-- Tactical border -->
    <path d="M8 8L16 16M16 8L8 16" stroke="#6B7280" stroke-width="0.5" stroke-opacity="0.5"/>
</svg> 